<?xml version="1.0" encoding="UTF-8"?>
<svg xmlns="http://www.w3.org/2000/svg" xmlns:xlink="http://www.w3.org/1999/xlink" width="32px" height="20px" viewBox="0 0 32 20" version="1.1">
<g id="surface1">
<path style=" stroke:none;fill-rule:nonzero;fill:rgb(25.882353%,28.235294%,60.784314%);fill-opacity:1;" d="M 31.539062 20.042969 L 0.460938 20.042969 C 0.15625 20.042969 -0.09375 19.804688 -0.09375 19.515625 L -0.09375 0.484375 C -0.09375 0.195312 0.15625 -0.0429688 0.460938 -0.0429688 L 31.539062 -0.0429688 C 31.84375 -0.0429688 32.09375 0.195312 32.09375 0.484375 L 32.09375 19.515625 C 32.09375 19.804688 31.84375 20.042969 31.539062 20.042969 Z M 31.539062 20.042969 "/>
<path style=" stroke:none;fill-rule:nonzero;fill:rgb(96.078431%,96.470588%,96.470588%);fill-opacity:1;" d="M 32.09375 0.484375 C 32.09375 0.195312 31.84375 -0.0429688 31.539062 -0.0429688 L 29.054688 -0.0429688 L 18.773438 6.371094 L 18.773438 -0.0429688 L 13.226562 -0.0429688 L 13.226562 6.371094 L 2.945312 -0.0429688 L 0.460938 -0.0429688 C 0.15625 -0.0429688 -0.09375 0.195312 -0.09375 0.484375 L -0.09375 1.851562 L 8.726562 7.355469 L -0.09375 7.355469 L -0.09375 12.644531 L 8.726562 12.644531 L -0.09375 18.148438 L -0.09375 19.515625 C -0.09375 19.804688 0.15625 20.042969 0.460938 20.042969 L 2.945312 20.042969 L 13.226562 13.628906 L 13.226562 20.042969 L 18.773438 20.042969 L 18.773438 13.628906 L 29.054688 20.042969 L 31.539062 20.042969 C 31.84375 20.042969 32.09375 19.804688 32.09375 19.515625 L 32.09375 18.148438 L 23.273438 12.644531 L 32.09375 12.644531 L 32.09375 7.355469 L 23.273438 7.355469 L 32.09375 1.851562 Z M 32.09375 0.484375 "/>
<path style=" stroke:none;fill-rule:nonzero;fill:rgb(94.117647%,30.980392%,34.901961%);fill-opacity:1;" d="M 32.09375 8.414062 L 17.664062 8.414062 L 17.664062 -0.0429688 L 14.335938 -0.0429688 L 14.335938 8.414062 L -0.09375 8.414062 L -0.09375 11.585938 L 14.335938 11.585938 L 14.335938 20.042969 L 17.664062 20.042969 L 17.664062 11.585938 L 32.09375 11.585938 Z M 32.09375 8.414062 "/>
<path style=" stroke:none;fill-rule:nonzero;fill:rgb(94.117647%,30.980392%,34.901961%);fill-opacity:1;" d="M 11.15625 12.644531 L -0.078125 19.585938 C -0.0390625 19.84375 0.179688 20.039062 0.460938 20.039062 L 1.226562 20.039062 L 13.195312 12.636719 Z M 11.15625 12.644531 "/>
<path style=" stroke:none;fill-rule:nonzero;fill:rgb(94.117647%,30.980392%,34.901961%);fill-opacity:1;" d="M 21.683594 12.644531 L 19.644531 12.644531 L 31.59375 20.035156 C 31.875 20.003906 32.09375 19.789062 32.09375 19.515625 L 32.09375 19.082031 Z M 21.683594 12.644531 "/>
<path style=" stroke:none;fill-rule:nonzero;fill:rgb(94.117647%,30.980392%,34.901961%);fill-opacity:1;" d="M -0.09375 1.070312 L 10.074219 7.355469 L 12.113281 7.355469 L 0.230469 0.0078125 C 0.0390625 0.09375 -0.09375 0.277344 -0.09375 0.484375 Z M -0.09375 1.070312 "/>
<path style=" stroke:none;fill-rule:nonzero;fill:rgb(94.117647%,30.980392%,34.901961%);fill-opacity:1;" d="M 20.816406 7.355469 L 32.074219 0.394531 C 32.03125 0.148438 31.808594 -0.0429688 31.539062 -0.0429688 L 30.746094 -0.0429688 L 18.773438 7.355469 Z M 20.816406 7.355469 "/>
</g>
</svg>
