<?xml version="1.0" encoding="UTF-8"?>
<svg xmlns="http://www.w3.org/2000/svg" xmlns:xlink="http://www.w3.org/1999/xlink" width="32px" height="20px" viewBox="0 0 32 20" version="1.1">
<g id="surface1">
<path style=" stroke:none;fill-rule:nonzero;fill:rgb(94.509804%,94.117647%,94.117647%);fill-opacity:1;" d="M 0 0 L 31.980469 0 L 31.980469 20.304688 L 0 20.304688 Z M 0 0 "/>
<path style=" stroke:none;fill-rule:nonzero;fill:rgb(84.705882%,12.156863%,16.470588%);fill-opacity:1;" d="M 0 2.539062 L 31.980469 2.539062 L 31.980469 5.078125 L 0 5.078125 Z M 0 2.539062 "/>
<path style=" stroke:none;fill-rule:nonzero;fill:rgb(84.705882%,12.156863%,16.470588%);fill-opacity:1;" d="M 0 7.613281 L 31.980469 7.613281 L 31.980469 10.152344 L 0 10.152344 Z M 0 7.613281 "/>
<path style=" stroke:none;fill-rule:nonzero;fill:rgb(84.705882%,12.156863%,16.470588%);fill-opacity:1;" d="M 0 12.691406 L 31.980469 12.691406 L 31.980469 15.230469 L 0 15.230469 Z M 0 12.691406 "/>
<path style=" stroke:none;fill-rule:nonzero;fill:rgb(84.705882%,12.156863%,16.470588%);fill-opacity:1;" d="M 0 17.765625 L 31.980469 17.765625 L 31.980469 20.304688 L 0 20.304688 Z M 0 17.765625 "/>
<path style=" stroke:none;fill-rule:nonzero;fill:rgb(21.568627%,33.333333%,65.098039%);fill-opacity:1;" d="M 0 0 L 15.988281 0 L 15.988281 10.933594 L 0 10.933594 Z M 0 0 "/>
<path style=" stroke:none;fill-rule:nonzero;fill:rgb(94.509804%,94.117647%,94.117647%);fill-opacity:1;" d="M 6.234375 4.480469 L 5.980469 5.234375 L 5.144531 5.234375 L 5.820312 5.699219 L 5.558594 6.453125 L 6.234375 5.992188 L 6.910156 6.453125 L 6.648438 5.699219 L 7.324219 5.234375 L 6.488281 5.234375 Z M 6.234375 4.480469 "/>
<path style=" stroke:none;fill-rule:nonzero;fill:rgb(94.509804%,94.117647%,94.117647%);fill-opacity:1;" d="M 6.488281 7.957031 L 6.234375 7.199219 L 5.980469 7.957031 L 5.144531 7.957031 L 5.820312 8.421875 L 5.558594 9.175781 L 6.234375 8.710938 L 6.910156 9.175781 L 6.648438 8.421875 L 7.324219 7.957031 Z M 6.488281 7.957031 "/>
<path style=" stroke:none;fill-rule:nonzero;fill:rgb(94.509804%,94.117647%,94.117647%);fill-opacity:1;" d="M 2.96875 7.957031 L 2.714844 7.199219 L 2.453125 7.957031 L 1.625 7.957031 L 2.300781 8.421875 L 2.039062 9.175781 L 2.714844 8.710938 L 3.390625 9.175781 L 3.128906 8.421875 L 3.804688 7.957031 Z M 2.96875 7.957031 "/>
<path style=" stroke:none;fill-rule:nonzero;fill:rgb(94.509804%,94.117647%,94.117647%);fill-opacity:1;" d="M 2.714844 4.480469 L 2.453125 5.234375 L 1.625 5.234375 L 2.300781 5.699219 L 2.039062 6.453125 L 2.714844 5.992188 L 3.390625 6.453125 L 3.128906 5.699219 L 3.804688 5.234375 L 2.96875 5.234375 Z M 2.714844 4.480469 "/>
<path style=" stroke:none;fill-rule:nonzero;fill:rgb(94.509804%,94.117647%,94.117647%);fill-opacity:1;" d="M 6.234375 1.757812 L 5.980469 2.507812 L 5.144531 2.507812 L 5.820312 2.976562 L 5.558594 3.734375 L 6.234375 3.265625 L 6.910156 3.734375 L 6.648438 2.976562 L 7.324219 2.507812 L 6.488281 2.507812 Z M 6.234375 1.757812 "/>
<path style=" stroke:none;fill-rule:nonzero;fill:rgb(94.509804%,94.117647%,94.117647%);fill-opacity:1;" d="M 2.714844 1.757812 L 2.453125 2.507812 L 1.625 2.507812 L 2.300781 2.976562 L 2.039062 3.734375 L 2.714844 3.265625 L 3.390625 3.734375 L 3.128906 2.976562 L 3.804688 2.507812 L 2.96875 2.507812 Z M 2.714844 1.757812 "/>
<path style=" stroke:none;fill-rule:nonzero;fill:rgb(94.509804%,94.117647%,94.117647%);fill-opacity:1;" d="M 9.753906 4.480469 L 9.5 5.234375 L 8.664062 5.234375 L 9.339844 5.699219 L 9.078125 6.453125 L 9.753906 5.992188 L 10.429688 6.453125 L 10.171875 5.699219 L 10.84375 5.234375 L 10.015625 5.234375 Z M 9.753906 4.480469 "/>
<path style=" stroke:none;fill-rule:nonzero;fill:rgb(94.509804%,94.117647%,94.117647%);fill-opacity:1;" d="M 10.015625 7.957031 L 9.753906 7.199219 L 9.5 7.957031 L 8.664062 7.957031 L 9.339844 8.421875 L 9.078125 9.175781 L 9.753906 8.710938 L 10.429688 9.175781 L 10.171875 8.421875 L 10.84375 7.957031 Z M 10.015625 7.957031 "/>
<path style=" stroke:none;fill-rule:nonzero;fill:rgb(94.509804%,94.117647%,94.117647%);fill-opacity:1;" d="M 13.535156 7.957031 L 13.273438 7.199219 L 13.019531 7.957031 L 12.183594 7.957031 L 12.859375 8.421875 L 12.601562 9.175781 L 13.273438 8.710938 L 13.949219 9.175781 L 13.695312 8.421875 L 14.363281 7.957031 Z M 13.535156 7.957031 "/>
<path style=" stroke:none;fill-rule:nonzero;fill:rgb(94.509804%,94.117647%,94.117647%);fill-opacity:1;" d="M 13.273438 4.480469 L 13.019531 5.234375 L 12.183594 5.234375 L 12.859375 5.699219 L 12.601562 6.453125 L 13.273438 5.992188 L 13.949219 6.453125 L 13.695312 5.699219 L 14.363281 5.234375 L 13.535156 5.234375 Z M 13.273438 4.480469 "/>
<path style=" stroke:none;fill-rule:nonzero;fill:rgb(94.509804%,94.117647%,94.117647%);fill-opacity:1;" d="M 9.753906 1.757812 L 9.5 2.507812 L 8.664062 2.507812 L 9.339844 2.976562 L 9.078125 3.734375 L 9.753906 3.265625 L 10.429688 3.734375 L 10.171875 2.976562 L 10.84375 2.507812 L 10.015625 2.507812 Z M 9.753906 1.757812 "/>
<path style=" stroke:none;fill-rule:nonzero;fill:rgb(94.509804%,94.117647%,94.117647%);fill-opacity:1;" d="M 13.273438 1.757812 L 13.019531 2.507812 L 12.183594 2.507812 L 12.859375 2.976562 L 12.601562 3.734375 L 13.273438 3.265625 L 13.949219 3.734375 L 13.695312 2.976562 L 14.363281 2.507812 L 13.535156 2.507812 Z M 13.273438 1.757812 "/>
</g>
</svg>
